<svg xmlns="http://www.w3.org/2000/svg" viewBox="0 0 1200 1000" width="100%" height="100%">
    <rect x="140" y="90" width="720" height="120" fill="#111111" />
    <rect x="790" y="140" width="120" height="5" fill="#111111" />
    <rect x="790" y="505" width="120" height="5" fill="#111111" />
    <rect x="790" y="145" width="5" height="360" fill="#111111" />
    <rect x="905" y="145" width="5" height="360" fill="#111111" />
    <rect x="790" y="490" width="120" height="5" fill="#111111" />
    <rect x="790" y="855" width="120" height="5" fill="#111111" />
    <rect x="790" y="495" width="5" height="360" fill="#111111" />
    <rect x="905" y="495" width="5" height="360" fill="#111111" />
    <rect x="140" y="790" width="720" height="120" fill="#111111" />
    <rect x="90" y="490" width="120" height="5" fill="#111111" />
    <rect x="90" y="855" width="120" height="5" fill="#111111" />
    <rect x="90" y="495" width="5" height="360" fill="#111111" />
    <rect x="205" y="495" width="5" height="360" fill="#111111" />
    <rect x="90" y="140" width="120" height="5" fill="#111111" />
    <rect x="90" y="505" width="120" height="5" fill="#111111" />
    <rect x="90" y="145" width="5" height="360" fill="#111111" />
    <rect x="205" y="145" width="5" height="360" fill="#111111" />
    <rect x="140" y="440" width="720" height="120" fill="#111111" />
    <rect x="990" y="790" width="120" height="5" fill="#111111" />
    <rect x="990" y="905" width="120" height="5" fill="#111111" />
    <rect x="990" y="795" width="5" height="110" fill="#111111" />
    <rect x="1105" y="795" width="5" height="110" fill="#111111" />
</svg>